# xmcd
#
# Track frame offsets:
#	150
#	14215
#	26895
#	41005
#	54100
#	70830
#	85432
#	98400
#	109537
#	124545
#	144287
#	158152
#	180150
#	201307
#	216122
#	229627
#	244427
#	257922
#	271860
#	287310
#	301420
#	314367
#	327832
#
# Disc length: 4643
#
# Revision: 1
# Processed by: cddbd v1.5.1PL0 Copyright (c) Steve Scherf et al.
# Submitted via: CDex 1.51
# Normalized: r0:TDELIM( - )
#
DISCID=3c122117
DTITLE=Great Trombonists - Trombones on Parade
DYEAR=1900
DGENRE=Jazz
TTITLE0=Kid Ory - Ory's Creole Trombone
TTITLE1=Miff Mole - Slippin' Around
TTITLE2=Juan Tizol - Keb-Iah
TTITLE3=Georg Brunis - Tin Roof Blues
TTITLE4=Brad Gowans - Ja-Da
TTITLE5=Glenn Miller - My Blue Heaven
TTITLE6=Tricky Sam Nanton - Black and Tan Fantasy
TTITLE7=Jack Teagarden - Lover
TTITLE8=Tommy Dorsey - Marie
TTITLE9=Sandy Williams - Up in Sidney's Flat
TTITLE10=J.C. Higginbotham - J.C. from K.C.
TTITLE11=Vic Dickenson - After You've Gone
TTITLE12=Benny Morton - Conversing in Blue
TTITLE13=Dicky Wells - I Got Rhythm
TTITLE14=Lawrence Brown - Rose of the Rio Grande
TTITLE15=Jack Jenney - Stardust
TTITLE16=Trummy Young - Margie
TTITLE17=Tyree Glenn - Sultry Serenade
TTITLE18=George Chisholm - Broadhurst Garden Blues
TTITLE19=Bill Harris - Everywhere
TTITLE20=Kai Winding - East of Suez
TTITLE21=J.J. Johnson - Yesterdays
TTITLE22=Benny Morton - Skiphorn Outing
EXTD=
EXTT0=
EXTT1=
EXTT2=
EXTT3=
EXTT4=
EXTT5=
EXTT6=
EXTT7=
EXTT8=
EXTT9=
EXTT10=
EXTT11=
EXTT12=
EXTT13=
EXTT14=
EXTT15=
EXTT16=
EXTT17=
EXTT18=
EXTT19=
EXTT20=
EXTT21=
EXTT22=
PLAYORDER=
